<svg width="34" height="34" viewBox="0 0 34 34" fill="none" xmlns="http://www.w3.org/2000/svg">
<circle cx="17" cy="17" r="17" fill="white"/>
<path d="M24.407 17.3975C24.272 18.8576 23.7241 20.249 22.8272 21.4091C21.9303 22.5691 20.7216 23.4497 19.3425 23.9478C17.9634 24.446 16.4709 24.541 15.0398 24.2219C13.6086 23.9028 12.2979 23.1827 11.2611 22.1459C10.2243 21.109 9.50415 19.7984 9.18504 18.3672C8.86592 16.936 8.961 15.4436 9.45914 14.0645C9.95728 12.6854 10.8379 11.4767 11.9979 10.5798C13.1579 9.6829 14.5494 9.13493 16.0095 9C15.1546 10.1565 14.7433 11.5814 14.8502 13.0155C14.9572 14.4497 15.5753 15.7978 16.5922 16.8147C17.6092 17.8316 18.9573 18.4498 20.3914 18.5567C21.8256 18.6637 23.2505 18.2523 24.407 17.3975Z" stroke="#255538" stroke-width="2.201" stroke-linecap="round" stroke-linejoin="round"/>
</svg>
